<?xml version="1.0" standalone="no"?>
<!DOCTYPE svg PUBLIC "-//W3C//DTD SVG 20010904//EN"
 "http://www.w3.org/TR/2001/REC-SVG-20010904/DTD/svg10.dtd">
<svg version="1.0" xmlns="http://www.w3.org/2000/svg"
 width="398.000000pt" height="398.000000pt" viewBox="0 0 398.000000 398.000000"
 preserveAspectRatio="xMidYMid meet">
<metadata>
Created by potrace 1.11, written by Peter Selinger 2001-2013
</metadata>
<g transform="translate(0.000000,398.000000) scale(0.100000,-0.100000)"
fill="#000000" stroke="none">
<path d="M1919 3676 c-89 -32 -195 -132 -255 -241 -6 -11 -69 -119 -141 -240
-71 -121 -132 -227 -136 -235 -4 -8 -13 -24 -20 -35 -10 -17 -59 -100 -129
-220 -9 -16 -23 -42 -30 -57 -7 -16 -16 -28 -20 -28 -4 0 -8 -4 -8 -10 0 -5
-22 -47 -50 -93 -27 -46 -50 -89 -50 -95 0 -7 -4 -12 -8 -12 -4 0 -20 -24 -36
-53 -15 -30 -37 -65 -49 -80 l-22 -26 -85 35 c-186 76 -298 84 -360 26 -22
-21 -49 -80 -45 -102 5 -31 34 -90 44 -90 6 0 11 -5 11 -11 0 -13 23 -34 125
-117 119 -98 113 -84 74 -161 -49 -95 -153 -275 -161 -279 -5 -2 -8 -12 -8
-23 0 -10 -3 -19 -7 -19 -5 0 -13 -10 -19 -23 -6 -12 -43 -78 -82 -146 -40
-68 -72 -127 -72 -132 0 -5 -4 -9 -8 -9 -4 0 -15 -15 -23 -32 -20 -42 -52
-101 -59 -108 -5 -5 -42 -72 -82 -150 -13 -25 -25 -47 -28 -50 -7 -7 -45 -82
-45 -89 0 -3 -4 -11 -8 -18 -12 -19 -21 -93 -20 -163 2 -122 66 -210 197 -274
l72 -35 344 -2 c596 -4 2233 -3 2515 1 379 6 442 11 507 45 193 99 239 303
118 528 -15 29 -80 144 -145 257 -65 113 -129 225 -143 249 -14 25 -38 67 -53
93 -16 27 -29 53 -29 58 0 6 -3 10 -7 10 -5 0 -26 34 -48 75 -22 41 -43 75
-47 75 -5 0 -8 8 -8 17 0 9 -6 24 -14 32 -7 9 -27 41 -43 71 -58 104 -87 155
-92 160 -3 3 -22 35 -41 72 -19 37 -38 68 -41 68 -4 0 -10 11 -13 25 -4 14
-11 25 -16 25 -6 0 -10 9 -10 20 0 11 -4 20 -10 20 -5 0 -10 7 -10 15 0 8 -5
15 -11 15 -5 0 -7 5 -4 10 3 6 1 10 -4 10 -6 0 -11 4 -11 9 0 5 -21 45 -46 88
-26 43 -57 96 -69 118 -30 56 -59 107 -116 203 -27 45 -49 85 -49 89 0 4 -6
14 -14 22 -8 9 -26 39 -41 66 -14 28 -35 64 -46 80 -10 17 -22 37 -25 45 -4 8
-14 23 -22 33 -8 9 -12 17 -9 17 4 0 -13 32 -38 70 -25 39 -45 72 -45 74 0 9
-164 281 -177 294 -7 7 -13 18 -13 23 0 6 -15 29 -32 52 -90 116 -194 177
-299 177 -35 -1 -80 -7 -100 -14z"/>
<path d="M100 2603 c-92 -48 -100 -174 -14 -240 101 -77 247 12 229 140 -4 23
-11 44 -16 45 -5 2 -7 7 -4 12 3 5 -9 19 -26 31 -43 31 -122 36 -169 12z"/>
</g>
</svg>
